<svg xmlns="http://www.w3.org/2000/svg" viewBox="0 0 400 400"><defs><style>.cls-1{fill:#ccd0db;}.cls-2{fill:#2b4256;}</style></defs><g id="Capa_2" data-name="Capa 2"><g id="Capa_1-2" data-name="Capa 1"><rect class="cls-1" width="400" height="400" rx="40"/><g id="b"><g id="c"><path class="cls-2" d="M77.61,88.57h88.9V288.48c0,12.36-10.12,22.8-22.47,22.59A22.12,22.12,0,0,1,122.33,289V222.53a44.89,44.89,0,0,0-44.9-44.89h0V288.13c0,36.87,29.45,67.47,66.32,67.83a67.06,67.06,0,0,0,67.65-67V222.18h47.92A18.71,18.71,0,0,1,278,240.89v114.9h0a44.54,44.54,0,0,0,44.54-44.53V88.57h0A44.54,44.54,0,0,0,278,44H122.15A44.54,44.54,0,0,0,77.61,88.57Zm181.71,89.07H211.39V88.57h47.93A18.71,18.71,0,0,1,278,107.28v51.66a18.71,18.71,0,0,1-18.71,18.71Z"/></g></g></g></g></svg>